<?xml version="1.0" encoding="utf-8"?>
<!-- Generator: Adobe Illustrator 22.0.1, SVG Export Plug-In . SVG Version: 6.00 Build 0)  -->
<svg version="1.1" id="Layer_1" xmlns="http://www.w3.org/2000/svg" xmlns:xlink="http://www.w3.org/1999/xlink" x="0px" y="0px"
	 viewBox="0 0 800 600" style="enable-background:new 0 0 800 600;" xml:space="preserve">
<style type="text/css">
	.st0{fill:#FFC50E;stroke:#BF8100;stroke-width:4;stroke-miterlimit:10;}
	.st1{fill:#BF8100;}
	.st2{font-family:'Herculanum';}
	.st3{font-size:93.1328px;}
</style>
<circle class="st0" cx="360.1" cy="342.9" r="75.1"/>
<text transform="matrix(1 0 0 1 344.8864 372.231)" class="st1 st2 st3">1</text>
<polygon class="st1" points="317.4,296 320.8,303 328.5,304.1 322.9,309.5 324.3,317.1 317.4,313.5 310.5,317.1 311.8,309.5 
	306.3,304.1 313.9,303 "/>
<polygon class="st1" points="351,276.9 354.4,283.8 362.1,284.9 356.5,290.4 357.8,298 351,294.4 344.1,298 345.4,290.4 
	339.8,284.9 347.5,283.8 "/>
<polygon class="st1" points="303.4,333.5 306.8,340.4 314.5,341.6 308.9,347 310.2,354.6 303.4,351 296.5,354.6 297.8,347 
	292.3,341.6 299.9,340.4 "/>
<polygon class="st1" points="316.4,369.5 319.8,376.5 327.5,377.6 321.9,383 323.3,390.6 316.4,387 309.5,390.6 310.8,383 
	305.3,377.6 312.9,376.5 "/>
<polygon class="st1" points="350,388.9 353.4,395.9 361.1,397 355.5,402.4 356.8,410 350,406.4 343.1,410 344.4,402.4 338.8,397 
	346.5,395.9 "/>
<polygon class="st1" points="388.9,282.6 392.3,289.5 400,290.6 394.4,296 395.8,303.7 388.9,300.1 382,303.7 383.3,296 
	377.8,290.6 385.5,289.5 "/>
<polygon class="st1" points="414.2,311.6 417.6,318.5 425.3,319.6 419.8,325.1 421.1,332.7 414.2,329.1 407.3,332.7 408.6,325.1 
	403.1,319.6 410.8,318.5 "/>
<polygon class="st1" points="414.2,349.1 417.7,356.1 425.3,357.2 419.8,362.6 421.1,370.2 414.2,366.6 407.4,370.2 408.7,362.6 
	403.1,357.2 410.8,356.1 "/>
<polygon class="st1" points="388.9,381.1 392.3,388 400,389.2 394.4,394.6 395.8,402.2 388.9,398.6 382,402.2 383.3,394.6 
	377.8,389.2 385.5,388 "/>
</svg>
